<svg xmlns="http://www.w3.org/2000/svg" width="512" height="512" viewBox="0 0 512 512">
  <g transform="translate(-30, 15)">
    <path d="m 361.39648,384.10156 q -41.2207,0 -74.0332,-18.25195 -32.60742,-18.25195 -51.67969,-53.11524 -18.86718,-35.06835 -18.86718,-85.3125 0,-50.44921 19.07226,-85.51757 19.27735,-35.06836 52.08985,-53.320316 32.8125,-18.251953 73.41796,-18.251953 36.29883,0 65.21485,13.125 28.91601,13.125 47.16797,38.144529 18.25195,25.01953 22.55859,60.70313 H 423.125 q -3.48633,-22.35352 -19.48242,-35.27344 -15.79102,-13.125 -40.40039,-13.125 -33.63282,0 -53.11524,24.60937 -19.27734,24.4043 -19.27734,68.90625 0,45.9375 19.48242,69.52149 19.48242,23.58398 52.5,23.58398 24.60938,0 40.60547,-12.91992 15.99609,-13.125 19.89258,-35.47851 h 73.21289 q -2.05078,20.50781 -11.89453,40.40039 -9.63867,19.89257 -26.66016,36.09375 -17.02148,16.20117 -41.2207,25.83984 -24.19922,9.63867 -55.3711,9.63867 z" fill="#734B9C" transform="translate(-95, -2)"/>
    <circle cx="440" cy="355" r="30" fill="#FDC234"/>
  </g>
</svg>
