<svg xmlns="http://www.w3.org/2000/svg" viewBox="355 180 440 120">
  <path d="m 459.33594,265.78125 q -7.85157,0 -14.10157,-3.47656 -6.21093,-3.47657 -9.84375,-10.11719 -3.59375,-6.67969 -3.59375,-16.25 0,-9.60938 3.63282,-16.28906 3.67187,-6.67969 9.92187,-10.15625 6.25,-3.47657 13.98438,-3.47657 6.91406,0 12.42187,2.5 5.50781,2.5 8.98438,7.26563 3.47656,4.76562 4.29687,11.5625 h -13.94531 q -0.66406,-4.25781 -3.71094,-6.71875 -3.00781,-2.5 -7.69531,-2.5 -6.40625,0 -10.11719,4.6875 -3.67187,4.64844 -3.67187,13.125 0,8.75 3.71093,13.24219 3.71094,4.49218 10,4.49218 4.6875,0 7.73438,-2.46093 3.04687,-2.5 3.78906,-6.75782 h 13.94531 q -0.39062,3.90625 -2.26562,7.69532 -1.83594,3.78906 -5.07813,6.875 -3.24218,3.08593 -7.85156,4.92187 -4.60937,1.83594 -10.54687,1.83594 z m 45.46875,0 q -6.28907,0 -10.35157,-3.20313 -4.02343,-3.20312 -4.02343,-9.6875 0,-4.84375 2.22656,-7.69531 2.22656,-2.85156 5.89844,-4.21875 3.71093,-1.36719 8.125,-1.75781 5.54687,-0.46875 7.92968,-1.13281 2.42188,-0.70313 2.42188,-2.73438 v -0.15625 q 0,-2.26562 -1.60156,-3.47656 -1.5625,-1.25 -4.33594,-1.25 -2.85156,0 -4.6875,1.21094 -1.83594,1.21093 -2.38281,3.28125 l -12.34375,-1.60157 q 1.28906,-5.58593 6.28906,-9.0625 5.03906,-3.51562 13.24219,-3.51562 5.42968,0 9.80468,1.67969 4.41407,1.67968 6.99219,4.96093 2.61719,3.24219 2.61719,7.92969 V 265 h -12.8125 v -6.13281 h -0.35156 q -3.63282,6.91406 -12.65625,6.91406 z m 4.14062,-9.02344 q 3.4375,0 5.82031,-2.03125 2.38282,-2.03125 2.38282,-5.27344 v -4.17968 q -1.17188,0.625 -3.39844,1.05468 -2.22656,0.42969 -4.14063,0.74219 -6.28906,0.9375 -6.28906,5.19531 0,2.1875 1.5625,3.35938 1.60156,1.13281 4.0625,1.13281 z m 54.25781,-35.42969 v 10.11719 h -7.85156 v 20.19531 q 0,3.39844 3.47656,3.39844 0.70313,0 1.95313,-0.15625 1.28906,-0.19531 1.83594,-0.3125 l 1.75781,9.92188 q -2.30469,0.66406 -4.45313,0.89843 -2.14843,0.23438 -4.0625,0.23438 -6.95312,0 -10.54687,-3.24219 -3.59375,-3.28125 -3.59375,-9.53125 v -21.40625 h -5.78125 v -10.11719 h 5.78125 V 210.9375 h 13.63281 v 10.39062 z m 19.60938,44.45313 q -6.28906,0 -10.35156,-3.20313 -4.02344,-3.20312 -4.02344,-9.6875 0,-4.84375 2.22656,-7.69531 2.22656,-2.85156 5.89844,-4.21875 3.71094,-1.36719 8.125,-1.75781 5.54687,-0.46875 7.92969,-1.13281 2.42187,-0.70313 2.42187,-2.73438 v -0.15625 q 0,-2.26562 -1.60156,-3.47656 -1.5625,-1.25 -4.33594,-1.25 -2.85156,0 -4.6875,1.21094 -1.83594,1.21093 -2.38281,3.28125 l -12.34375,-1.60157 q 1.28906,-5.58593 6.28906,-9.0625 5.03906,-3.51562 13.24219,-3.51562 5.42969,0 9.80469,1.67969 4.41406,1.67968 6.99218,4.96093 2.61719,3.24219 2.61719,7.92969 V 265 h -12.8125 v -6.13281 h -0.35156 q -3.63281,6.91406 -12.65625,6.91406 z m 4.14062,-9.02344 q 3.4375,0 5.82032,-2.03125 2.38281,-2.03125 2.38281,-5.27344 v -4.17968 q -1.17188,0.625 -3.39844,1.05468 -2.22656,0.42969 -4.14062,0.74219 -6.28907,0.9375 -6.28907,5.19531 0,2.1875 1.5625,3.35938 1.60157,1.13281 4.0625,1.13281 z m 44.33594,-49.96094 V 265 H 617.65625 V 206.79687 Z M 640.3125,265 v -43.67188 h 13.63281 V 265 Z m 6.79687,-48.78906 q -2.89062,0 -4.96093,-1.91407 -2.07032,-1.91406 -2.07032,-4.64843 0,-2.73438 2.07032,-4.64844 2.07031,-1.91406 4.96093,-1.91406 2.92969,0 5,1.91406 2.07032,1.91406 2.07032,4.64844 0,2.73437 -2.07032,4.64843 -2.07031,1.91407 -5,1.91407 z m 34.25782,49.60937 q -8.39844,0 -13.82813,-3.51562 Q 662.14844,258.75 661.01562,252.5 l 12.65625,-1.99219 q 0.82032,2.85156 2.77344,4.29688 1.95313,1.44531 5.42969,1.44531 2.85156,0 4.49219,-0.97656 1.64062,-1.01563 1.64062,-2.65625 0,-2.85157 -5.35156,-3.90625 l -7.61719,-1.48438 q -12.92969,-2.46094 -12.92969,-12.57812 0,-6.52344 5.19532,-10.19532 5.23437,-3.67187 14.02343,-3.67187 8.20313,0 13.16407,3.24219 4.96093,3.24218 6.09375,8.86718 l -12.03125,1.91407 q -1.32813,-4.64844 -6.99219,-4.64844 -2.46094,0 -4.17969,1.01562 -1.67969,0.97657 -1.67969,2.65625 0,1.32813 1.05469,2.34375 1.05469,0.97657 3.86719,1.52344 l 8.35937,1.5625 q 12.85157,2.42188 12.85157,11.79688 0,4.49218 -2.65625,7.8125 -2.61719,3.32031 -7.22657,5.15625 -4.60937,1.79687 -10.58593,1.79687 z m 39.6875,-0.0391 q -6.28907,0 -10.35157,-3.20313 -4.02343,-3.20312 -4.02343,-9.6875 0,-4.84375 2.22656,-7.69531 2.22656,-2.85156 5.89844,-4.21875 3.71093,-1.36719 8.125,-1.75781 5.54687,-0.46875 7.92968,-1.13281 2.42188,-0.70313 2.42188,-2.73438 v -0.15625 q 0,-2.26562 -1.60156,-3.47656 -1.5625,-1.25 -4.33594,-1.25 -2.85156,0 -4.6875,1.21094 -1.83594,1.21093 -2.38281,3.28125 l -12.34375,-1.60157 q 1.28906,-5.58593 6.28906,-9.0625 5.03906,-3.51562 13.24219,-3.51562 5.42968,0 9.80468,1.67969 4.41407,1.67968 6.99219,4.96093 2.61719,3.24219 2.61719,7.92969 V 265 h -12.8125 v -6.13281 h -0.35156 q -3.63282,6.91406 -12.65625,6.91406 z m 4.14062,-9.02344 q 3.4375,0 5.82031,-2.03125 2.38282,-2.03125 2.38282,-5.27344 v -4.17968 q -1.17188,0.625 -3.39844,1.05468 -2.22656,0.42969 -4.14063,0.74219 -6.28906,0.9375 -6.28906,5.19531 0,2.1875 1.5625,3.35938 1.60156,1.13281 4.0625,1.13281 z" fill="#734B9C" aria-label="Catalisa"/>
  <circle cx="760" cy="260" r="7" fill="#FDC234"/>
</svg>
