<svg xmlns="http://www.w3.org/2000/svg" width="32" height="32" viewBox="0 0 512 512">
  <rect width="512" height="512" rx="96" fill="#734B9C"/>
  <path d="M291.5 131.5c-18.5-11.2-41-17.5-65-17.5-80.3 0-145.4 65.1-145.4 145.4s65.1 145.4 145.4 145.4c24 0 46.5-6.3 65-17.5l0.2 0.1c5.2-3.2 8.5-5.8 8.5-5.8l-38.2-53.5s-1.2 0.8-3.3 1.9c-10.2 5.5-22 8.6-34.5 8.6-40.2 0-72.8-32.6-72.8-72.8s32.6-72.8 72.8-72.8c12.5 0 24.3 3.1 34.5 8.6 2.1 1.1 3.3 1.9 3.3 1.9l38.2-53.5s-3.3-2.6-8.5-5.8l-0.2 0.1z" fill="#FFFFFF"/>
  <circle cx="365" cy="370" r="38" fill="#FDC234"/>
</svg>
